<svg xmlns="http://www.w3.org/2000/svg" viewBox="0 0 149.35 104.39"><defs><style>.cls-1{fill:#06a7e0;}.cls-2{fill:#faa81e;}.cls-3{fill:#fbd40a;}.cls-4{fill:#8cc16f;}</style></defs><title>icon</title><g id="Layer_2" data-name="Layer 2"><g id="Layer_1-2" data-name="Layer 1"><path class="cls-1" d="M45.29,58.1A52.26,52.26,0,1,0,68.16,8.83a.85.85,0,0,0-.12,1.3l7.21,7.22a.83.83,0,0,0,1,.12,40.53,40.53,0,1,1-18.37,44.9.85.85,0,0,1,.22-.81L79.88,39.7a.84.84,0,0,1,1.19,0L99.22,57.78a.84.84,0,0,0,.59.24h29a.84.84,0,0,0,.84-.84v-10a.84.84,0,0,0-.84-.84H104.64a.84.84,0,0,1-.6-.24L81.28,23.42a.84.84,0,0,0-1.18,0l-34.56,34a.86.86,0,0,0-.25.7"/><path class="cls-2" d="M65.1,29.75l7.05-7.05a.84.84,0,0,0,0-1.19l-9.92-9.92a.84.84,0,0,0-.6-.25H47.53a.84.84,0,0,0-.6,1.44l17,17a.84.84,0,0,0,1.19,0"/><path class="cls-3" d="M53.28,41.28l7.05-7.05a.84.84,0,0,0,0-1.19L38.88,11.59a.85.85,0,0,0-.6-.25H24.19a.84.84,0,0,0-.6,1.44l28.5,28.5a.84.84,0,0,0,1.19,0"/><path class="cls-4" d="M.25,13.11l40,40a.84.84,0,0,0,1.19,0l7.05-7.05a.84.84,0,0,0,0-1.19l-33-33a.84.84,0,0,0-.59-.25l-14.12,0a.84.84,0,0,0-.6,1.44"/><path class="cls-2" d="M110.09,76.27h9.08a.81.81,0,0,0,.77-.84V65.77a.81.81,0,0,0-.77-.84h-9.08a.81.81,0,0,0-.77.84v9.66a.81.81,0,0,0,.77.84"/><path class="cls-3" d="M93.11,76.27h9.08a.81.81,0,0,0,.77-.84V65.77a.81.81,0,0,0-.77-.84H93.11a.81.81,0,0,0-.77.84v9.66a.81.81,0,0,0,.77.84"/><path class="cls-1" d="M85.21,80.68H76.13a.81.81,0,0,1-.77-.84v-21a.81.81,0,0,1,.77-.84h9.08a.81.81,0,0,1,.77.84v21a.81.81,0,0,1-.77.84"/></g></g></svg>