<svg xmlns="http://www.w3.org/2000/svg" viewBox="0 0 490.31 104.39"><defs><style>.cls-1,.cls-5{fill:#06a7e0;}.cls-2{fill:#faa81e;}.cls-3{fill:#fbd40a;}.cls-4{fill:#8cc16f;}.cls-5{font-size:9px;font-family:ProximaNova-Bold, Proxima Nova;font-weight:700;}</style></defs><title>sunrun</title><g id="Layer_2" data-name="Layer 2"><g id="Layer_1-2" data-name="Layer 1"><path class="cls-1" d="M185,82.06c-8.23,0-16.38-2.23-21.62-8a.91.91,0,0,1-.23-1l5.7-6.39c.31-.39.92-.53,1.14-.23,4.47,4.62,9.79,5.93,15.71,5.93,5.62,0,10.07-1.93,10.07-6,0-3.91-3.91-5.53-11.07-7.61-12.47-3.7-19.1-8-19.1-17.93,0-9.69,8.55-14.77,19.62-14.77,7.31,0,15,1.77,19.16,7.23.31.46.47.85.16,1.15l-5.45,5.63c-.23.22-.85.54-1.23.14a18,18,0,0,0-12.78-4.61c-6.08,0-8.38,2.39-8.38,5.17,0,3.85,2.83,5.46,12.39,8.23,10.84,3.14,17.39,6.69,17.39,17.16,0,10.85-9.93,15.92-21.48,15.92"/><path class="cls-1" d="M240.33,81.75c-13.71,0-22-6.85-22-19.78V28a1.07,1.07,0,0,1,.91-1h9.46c.54,0,.86.61.86,1V60.44c0,7.16,2.92,11.15,10.93,11.15,8.53,0,11-4.46,11-11.46V27.82a.93.93,0,0,1,.93-.78H262a.83.83,0,0,1,.76.78V61.74c0,13-8.85,20-22.46,20"/><path class="cls-1" d="M298.27,26.36c13.7,0,22,6.84,22,19.76V80.06a1.07,1.07,0,0,1-.92,1h-9.46c-.55,0-.86-.61-.86-1V47.66c0-7.15-2.93-11.16-10.92-11.16-8.55,0-11,4.47-11,11.47V80.29a.93.93,0,0,1-.92.77h-9.62a.83.83,0,0,1-.77-.77V46.35c0-13,8.84-20,22.47-20"/><path class="cls-1" d="M396.68,81.75c-13.7,0-22-6.85-22-19.78V28a1.07,1.07,0,0,1,.93-1h9.46c.54,0,.85.61.85,1V60.44c0,7.16,2.91,11.15,10.92,11.15,8.55,0,11-4.46,11-11.46V27.82a.93.93,0,0,1,.92-.78h9.62a.82.82,0,0,1,.77.78V61.74c0,13-8.84,20-22.47,20"/><path class="cls-1" d="M454.62,26.36c13.71,0,22,6.84,22,19.76V80.06a1.06,1.06,0,0,1-.93,1h-9.46c-.55,0-.85-.61-.85-1V47.66c0-7.15-2.93-11.16-10.94-11.16-8.53,0-11,4.47-11,11.47V80.29a.94.94,0,0,1-.93.77h-9.62a.83.83,0,0,1-.76-.77V46.35c0-13,8.85-20,22.46-20"/><path class="cls-1" d="M363.24,26.47h-.34c-2.7-.07-3.71-.11-4.73-.11-13.63,0-22.48,7-22.48,20V80.29a.83.83,0,0,0,.76.77h9.64a.92.92,0,0,0,.91-.77V48c0-7,2.47-11.47,11-11.47h5.24a1.69,1.69,0,0,0,1.68-1.68V28.17a1.69,1.69,0,0,0-1.68-1.7"/><path class="cls-1" d="M45.29,58.1A52.26,52.26,0,1,0,68.16,8.83a.85.85,0,0,0-.12,1.3l7.21,7.22a.83.83,0,0,0,1,.12,40.53,40.53,0,1,1-18.37,44.9.85.85,0,0,1,.22-.81L79.88,39.7a.84.84,0,0,1,1.19,0L99.22,57.78a.84.84,0,0,0,.59.24h29a.84.84,0,0,0,.84-.84v-10a.84.84,0,0,0-.84-.84H104.64a.84.84,0,0,1-.6-.24L81.28,23.42a.84.84,0,0,0-1.18,0l-34.56,34a.86.86,0,0,0-.25.7"/><path class="cls-2" d="M65.1,29.75l7.05-7.05a.84.84,0,0,0,0-1.19l-9.92-9.92a.84.84,0,0,0-.6-.25H47.53a.84.84,0,0,0-.6,1.44l17,17a.84.84,0,0,0,1.19,0"/><path class="cls-3" d="M53.28,41.28l7.05-7.05a.84.84,0,0,0,0-1.19L38.88,11.59a.85.85,0,0,0-.6-.25H24.19a.84.84,0,0,0-.6,1.44l28.5,28.5a.84.84,0,0,0,1.19,0"/><path class="cls-4" d="M.25,13.11l40,40a.84.84,0,0,0,1.19,0l7.05-7.05a.84.84,0,0,0,0-1.19l-33-33a.84.84,0,0,0-.59-.25l-14.12,0a.84.84,0,0,0-.6,1.44"/><path class="cls-2" d="M110.09,76.27h9.08a.81.81,0,0,0,.77-.84V65.77a.81.81,0,0,0-.77-.84h-9.08a.81.81,0,0,0-.77.84v9.66a.81.81,0,0,0,.77.84"/><path class="cls-3" d="M93.11,76.27h9.08a.81.81,0,0,0,.77-.84V65.77a.81.81,0,0,0-.77-.84H93.11a.81.81,0,0,0-.77.84v9.66a.81.81,0,0,0,.77.84"/><path class="cls-1" d="M85.21,80.68H76.13a.81.81,0,0,1-.77-.84v-21a.81.81,0,0,1,.77-.84h9.08a.81.81,0,0,1,.77.84v21a.81.81,0,0,1-.77.84"/><path class="cls-1" d="M484.34,23.3c.67,0,1-.29,1-.86v0c0-.62-.37-.83-1-.83h-.75V23.3Zm-2-2.71h2.07c1.37,0,2.26.57,2.26,1.77v0A1.56,1.56,0,0,1,485.42,24l1.56,2.5h-1.34l-1.42-2.29h-.62v2.29H482.3Zm6.94,3a4.89,4.89,0,1,0-9.78,0,4.89,4.89,0,1,0,9.78,0m-10.86,0a6,6,0,1,1,6,5.91,5.88,5.88,0,0,1-6-5.91"/><text></text><text class="cls-5" transform="translate(148.46 7.5)">TM</text></g></g></svg>