<svg xmlns="http://www.w3.org/2000/svg" viewBox="0 0 100 29.65"><defs><style>.cls-1{fill:#fff;}.cls-2{fill:#cf0a2c;}.cls-3{fill:#0033a0;}</style></defs><title>costco</title><g id="Layer_2" data-name="Layer 2"><g id="Art"><polygon class="cls-1" points="1.99 24.03 1.99 25.71 72.56 25.71 72.88 24.03 1.99 24.03"/><polygon class="cls-1" points="73.7 27.11 0.6 27.11 0.6 22.64 74.57 22.64 73.7 27.11"/><polygon class="cls-1" points="72.41 26.48 1.99 26.48 1.99 28.16 72.08 28.15 72.41 26.48"/><polygon class="cls-1" points="0.6 29.55 0.6 25.08 74.1 25.08 73.23 29.55 0.6 29.55"/><polygon class="cls-1" points="1.99 21.54 1.99 23.32 74.98 23.32 75.34 21.54 1.99 21.54"/><polygon class="cls-1" points="76.13 24.71 0.6 24.71 0.6 20.14 77.04 20.14 76.13 24.71"/><path class="cls-1" d="M51.9,9.79l3.62-.13-3,10H59l3-10,3.54.13L67,5H53.35Z"/><path class="cls-1" d="M60,21.06H50.61l3-9.94L50,11.25l2.31-7.61H68.88l-2.3,7.58L63,11.09Zm-5.65-2.79H58L61,8.22l3.54.13.59-1.93H54.38l-.58,1.9,3.62-.13Z"/><path class="cls-1" d="M38.45,12.39c-.91,4.7-5.89,7.51-11.34,7.51s-9.35-2.81-8.44-7.51S24.59,4.8,30,4.8,39.34,7.79,38.45,12.39Zm-13.25.08c-.32,1.67.83,2.81,2.8,2.81a3.74,3.74,0,0,0,3.89-2.81c.3-1.55-.73-2.85-2.79-2.85A3.8,3.8,0,0,0,25.2,12.47Z"/><path class="cls-1" d="M27.11,21.29c-3.7,0-6.7-1.16-8.44-3.26a6.91,6.91,0,0,1-1.36-5.9c1-5.05,6.33-8.72,12.72-8.72,3.59,0,6.64,1.21,8.38,3.31a7,7,0,0,1,1.41,5.93C38.83,17.74,33.6,21.29,27.11,21.29ZM30,6.19c-5.07,0-9.27,2.72-10,6.46a4.16,4.16,0,0,0,.78,3.6c1.18,1.43,3.47,2.25,6.29,2.25,5.15,0,9.25-2.63,10-6.38a4.2,4.2,0,0,0-.82-3.63C35.05,7,32.78,6.19,30,6.19ZM28,16.67a4.36,4.36,0,0,1-3.46-1.43,3.6,3.6,0,0,1-.7-3,5.2,5.2,0,0,1,5.26-4,4.32,4.32,0,0,1,3.43,1.44,3.64,3.64,0,0,1,.73,3.07A5.12,5.12,0,0,1,28,16.67ZM29.09,11a2.42,2.42,0,0,0-2.53,1.73.87.87,0,0,0,.12.74,1.76,1.76,0,0,0,1.32.42,2.39,2.39,0,0,0,2.52-1.69.93.93,0,0,0-.14-.77A1.67,1.67,0,0,0,29.09,11Z"/><path class="cls-1" d="M36.43,18.56A17.07,17.07,0,0,0,43,19.9c3.87,0,8.09-1.73,8.76-5.22.48-2.48-1.28-3.69-3.93-4.19l-1.42-.27c-.48-.1-1.27-.18-1.16-.72s1-.78,1.55-.78A6.61,6.61,0,0,1,50.4,9.83l2.48-3.75A11,11,0,0,0,47.46,4.8c-3.89,0-8.13,1.94-8.8,5.41-.44,2.29,1.45,3.51,3.92,3.88l1.27.19c.57.1,1.42.16,1.29.82s-1.19.87-1.83.87a6.48,6.48,0,0,1-3.8-1.34l-.29-.21Z"/><path class="cls-1" d="M43,21.29a18.4,18.4,0,0,1-7.19-1.46l-1.51-.68,3.83-5.67c-.09-.1-.17-.21-.25-.32A4.1,4.1,0,0,1,37.29,10C38.12,5.66,43,3.41,47.46,3.41a12.3,12.3,0,0,1,6.09,1.45l1.32.73-3.26,4.93a4.47,4.47,0,0,1,1,1,4.39,4.39,0,0,1,.6,3.41C52.33,19.31,47.33,21.29,43,21.29Zm-4.47-3.43a16.57,16.57,0,0,0,4.47.64c3.28,0,6.88-1.41,7.4-4.09a1.6,1.6,0,0,0-.17-1.32,4.17,4.17,0,0,0-2.66-1.24L46,11.55a2.66,2.66,0,0,1-1.84-1,1.78,1.78,0,0,1-.27-1.35c.22-1.16,1.37-1.9,2.92-1.9A7.5,7.5,0,0,1,49.94,8l.87-1.31a10.53,10.53,0,0,0-3.35-.5c-3.25,0-6.92,1.6-7.44,4.29a1.3,1.3,0,0,0,.17,1.08,3.93,3.93,0,0,0,2.59,1.16l1.45.22a2.73,2.73,0,0,1,2,1,1.88,1.88,0,0,1,.29,1.46c-.28,1.48-1.9,2-3.2,2a7.45,7.45,0,0,1-3.71-1Z"/><path class="cls-1" d="M79.65,5.4a15.08,15.08,0,0,0-4.25-.6c-5.24,0-10,3.41-10.83,7.69s2.55,7.41,7.65,7.41A18.6,18.6,0,0,0,77,19.32l1.25-5.47a6.86,6.86,0,0,1-4,1.36c-1.94,0-3.39-1.24-3.08-2.85S73.29,9.5,75.23,9.5A5.27,5.27,0,0,1,78.77,11Z"/><path class="cls-1" d="M72.23,21.29a9.66,9.66,0,0,1-7.57-3.14,7,7,0,0,1-1.45-5.93c1-4.94,6.31-8.81,12.2-8.81a16.46,16.46,0,0,1,4.65.66l1.17.35-1,6.35.16-.11-.46,2-.16,1-.06-.05-1.53,6.71-.71.26A19.91,19.91,0,0,1,72.23,21.29Zm3.18-15.1c-4.52,0-8.76,2.94-9.46,6.56a4.25,4.25,0,0,0,.86,3.63,6.92,6.92,0,0,0,5.42,2.13,22,22,0,0,0,3.57-.32l.42-1.86a7.53,7.53,0,0,1-2,.27A4.74,4.74,0,0,1,70.52,15a3.48,3.48,0,0,1-.74-2.92c.43-2.23,2.83-4,5.45-4a6.08,6.08,0,0,1,2.5.54l.35-2.19A14.05,14.05,0,0,0,75.41,6.19Zm-.17,4.7a2.76,2.76,0,0,0-2.72,1.72.7.7,0,0,0,.15.63,2.05,2.05,0,0,0,1.56.57,5.46,5.46,0,0,0,3.19-1.11l.67-.46L77.84,12A3.84,3.84,0,0,0,75.23,10.89Z"/><path class="cls-1" d="M90.06,4.8c-5.43,0-10.47,3-11.36,7.59s3,7.51,8.44,7.51,10.43-2.81,11.34-7.51S95.49,4.8,90.06,4.8Zm-.93,4.81c2.06,0,3.09,1.3,2.79,2.85A3.74,3.74,0,0,1,88,15.28c-2,0-3.12-1.14-2.8-2.81A3.8,3.8,0,0,1,89.13,9.62Z"/><path class="cls-1" d="M87.14,21.29c-3.7,0-6.7-1.16-8.44-3.26a6.91,6.91,0,0,1-1.37-5.9c1-5.05,6.33-8.72,12.72-8.72,3.59,0,6.64,1.21,8.38,3.31a7,7,0,0,1,1.41,5.93C98.86,17.74,93.64,21.29,87.14,21.29Zm2.92-15.1c-5.07,0-9.27,2.72-10,6.46a4.17,4.17,0,0,0,.78,3.6c1.18,1.43,3.47,2.25,6.29,2.25,5.15,0,9.25-2.63,10-6.38a4.2,4.2,0,0,0-.82-3.63C95.09,7,92.81,6.19,90.06,6.19ZM88,16.67a4.35,4.35,0,0,1-3.46-1.43,3.6,3.6,0,0,1-.7-3,5.2,5.2,0,0,1,5.26-4,4.32,4.32,0,0,1,3.43,1.44,3.64,3.64,0,0,1,.73,3.07A5.12,5.12,0,0,1,88,16.67ZM89.13,11a2.43,2.43,0,0,0-2.53,1.73.87.87,0,0,0,.12.74,1.76,1.76,0,0,0,1.32.42,2.39,2.39,0,0,0,2.52-1.69.93.93,0,0,0-.14-.77A1.67,1.67,0,0,0,89.13,11Z"/><path class="cls-1" d="M20.34,2.12A19.41,19.41,0,0,0,15,1.39c-6.54,0-12.48,4.13-13.51,9.29s3.18,9,9.54,9a24,24,0,0,0,5.91-.7l1.56-6.62a8.74,8.74,0,0,1-5,1.64c-2.43,0-4.23-1.5-3.84-3.45s2.67-3.45,5.1-3.45a6.68,6.68,0,0,1,4.41,1.78Z"/><path class="cls-1" d="M11.08,21c-3.91,0-7.28-1.38-9.26-3.79A8.08,8.08,0,0,1,.17,10.41C1.34,4.57,7.87,0,15,0a20.73,20.73,0,0,1,5.68.78l1.19.34L20.58,9.28l.13-.09-.4,1.69-.11.66,0,0-2,8.5-.72.25A25.14,25.14,0,0,1,11.08,21ZM15,2.78C9.25,2.78,3.8,6.45,2.9,11A5.27,5.27,0,0,0,4,15.47c1.45,1.76,4,2.78,7.11,2.78a27.93,27.93,0,0,0,4.74-.44l.69-2.93a9.27,9.27,0,0,1-2.94.47,5.59,5.59,0,0,1-4.39-1.85,3.87,3.87,0,0,1-.81-3.26c.51-2.56,3.35-4.57,6.46-4.57a7.45,7.45,0,0,1,3.38.81l.55-3.33A18.38,18.38,0,0,0,15,2.78Zm-.22,5.68c-1.74,0-3.48,1.09-3.73,2.33a1.09,1.09,0,0,0,.24,1,2.94,2.94,0,0,0,2.24.83,7.32,7.32,0,0,0,4.2-1.41l1.14-.76-.58-.5A5.22,5.22,0,0,0,14.83,8.46Z"/><path class="cls-2" d="M95.68,18.82a1.2,1.2,0,0,1,1.2-.86c.57,0,1,.38.87.86a1.2,1.2,0,0,1-1.2.86C96,19.69,95.59,19.3,95.68,18.82Zm1.8,0c.07-.38-.2-.63-.64-.63a.84.84,0,0,0-.89.63c-.07.38.19.64.64.64A.85.85,0,0,0,97.48,18.82Z"/><path class="cls-1" d="M96.55,20.75A2,2,0,0,1,95,20.07a1.74,1.74,0,0,1-.36-1.44,2.26,2.26,0,0,1,2.25-1.73,2,2,0,0,1,1.55.69A1.73,1.73,0,0,1,98.8,19,2.26,2.26,0,0,1,96.55,20.75Z"/><polygon class="cls-3" points="1.99 24.03 1.99 25.71 76.11 25.71 76.45 24.03 1.99 24.03"/><polygon class="cls-3" points="74.45 26.48 1.99 26.48 1.99 28.16 74.11 28.15 74.45 26.48"/><polygon class="cls-3" points="1.99 21.54 1.99 23.32 76.6 23.32 76.97 21.54 1.99 21.54"/><path class="cls-2" d="M74.18,27.16a1.47,1.47,0,0,1-1.5,1.1c-.65,0-1.26-.4-1.14-1.1A1.48,1.48,0,0,1,73,26C73.68,26,74.28,26.45,74.18,27.16Z"/><path class="cls-1" d="M72.68,29.65a2.63,2.63,0,0,1-2-.88,2.23,2.23,0,0,1-.49-1.84A2.85,2.85,0,0,1,73,24.64a2.62,2.62,0,0,1,2,.87,2.28,2.28,0,0,1,.52,1.85A2.87,2.87,0,0,1,72.68,29.65ZM72.8,27a.53.53,0,0,0,.12.33A.56.56,0,0,0,72.8,27Z"/><path class="cls-3" d="M80.05,24.18a1.82,1.82,0,0,0-1.32-.67,1.59,1.59,0,0,0-1.52,1.3,1.11,1.11,0,0,0,1.14,1.3,2.3,2.3,0,0,0,1.5-.62L79.38,28a5.79,5.79,0,0,1-1.77.27,2.79,2.79,0,0,1-2.85-3.38,4.21,4.21,0,0,1,4-3.51,4.65,4.65,0,0,1,1.59.28Z"/><path class="cls-1" d="M77.61,29.65a4.25,4.25,0,0,1-3.3-1.45,4.31,4.31,0,0,1-.93-3.54A5.61,5.61,0,0,1,78.79,20a6,6,0,0,1,2.07.36l1,.38-.18,1.37.21-.18-.6,3.21-.28,2.19-.11-.12L80.61,29l-.67.3A7.23,7.23,0,0,1,77.61,29.65Z"/><path class="cls-3" d="M87.34,24.83a4.13,4.13,0,0,1-4.24,3.43c-2,0-3.49-1.29-3.16-3.43a4.22,4.22,0,0,1,4.25-3.47A2.9,2.9,0,0,1,87.34,24.83Zm-4.95,0a1,1,0,0,0,1,1.29,1.47,1.47,0,0,0,1.45-1.29,1,1,0,0,0-1-1.3A1.49,1.49,0,0,0,82.39,24.87Z"/><path class="cls-1" d="M83.1,29.65a4.67,4.67,0,0,1-3.64-1.52,4.28,4.28,0,0,1-.89-3.52A5.59,5.59,0,0,1,84.19,20a4.64,4.64,0,0,1,3.62,1.54,4.29,4.29,0,0,1,.9,3.54A5.49,5.49,0,0,1,83.1,29.65Z"/><path class="cls-3" d="M88.91,21.47h2.5L91.79,25h.06a6.59,6.59,0,0,1,.31-.89l1.16-2.62h2.47l0,6.68H93.49l.25-3.66h0c-.08.22-.16.45-.26.67l-1.45,3H90.57l-.42-2.83a4.34,4.34,0,0,1,0-.83H90c-.05.27-.11.54-.19.81l-.74,2.86H86.78Z"/><path class="cls-1" d="M97.24,29.55H84.87l3-9.47h9.28ZM94.12,23.1h.29v-.24h-.18Zm-4.27,0h.33l0-.24h-.23Z"/><path class="cls-2" d="M74.18,27.16a1.47,1.47,0,0,1-1.5,1.1c-.65,0-1.26-.4-1.14-1.1A1.48,1.48,0,0,1,73,26C73.68,26,74.28,26.45,74.18,27.16Z"/><path class="cls-3" d="M80.05,24.18a1.82,1.82,0,0,0-1.32-.67,1.59,1.59,0,0,0-1.52,1.3,1.11,1.11,0,0,0,1.14,1.3,2.3,2.3,0,0,0,1.5-.62L79.38,28a5.79,5.79,0,0,1-1.77.27,2.79,2.79,0,0,1-2.85-3.38,4.21,4.21,0,0,1,4-3.51,4.65,4.65,0,0,1,1.59.28Z"/><path class="cls-3" d="M87.34,24.83a4.13,4.13,0,0,1-4.24,3.43c-2,0-3.49-1.29-3.16-3.43a4.22,4.22,0,0,1,4.25-3.47A2.9,2.9,0,0,1,87.34,24.83Zm-4.95,0a1,1,0,0,0,1,1.29,1.47,1.47,0,0,0,1.45-1.29,1,1,0,0,0-1-1.3A1.49,1.49,0,0,0,82.39,24.87Z"/><path class="cls-3" d="M88.91,21.47h2.5L91.79,25h.06a6.59,6.59,0,0,1,.31-.89l1.16-2.62h2.47l0,6.68H93.49l.25-3.66h0c-.08.22-.16.45-.26.67l-1.45,3H90.57l-.42-2.83a4.34,4.34,0,0,1,0-.83H90c-.05.27-.11.54-.19.81l-.74,2.86H86.78Z"/><path class="cls-2" d="M51.9,9.79l3.62-.13-3,10H59l3-10,3.54.13L67,5H53.35Z"/><path class="cls-2" d="M38.45,12.39c-.91,4.7-5.89,7.51-11.34,7.51s-9.35-2.81-8.44-7.51S24.59,4.8,30,4.8,39.34,7.79,38.45,12.39Zm-13.25.08c-.32,1.67.83,2.81,2.8,2.81a3.74,3.74,0,0,0,3.89-2.81c.3-1.55-.73-2.85-2.79-2.85A3.8,3.8,0,0,0,25.2,12.47Z"/><path class="cls-2" d="M36.43,18.56A17.07,17.07,0,0,0,43,19.9c3.87,0,8.09-1.73,8.76-5.22.48-2.48-1.28-3.69-3.93-4.19l-1.42-.27c-.48-.1-1.27-.18-1.16-.72s1-.78,1.55-.78A6.61,6.61,0,0,1,50.4,9.83l2.48-3.75A11,11,0,0,0,47.46,4.8c-3.89,0-8.13,1.94-8.8,5.41-.44,2.29,1.45,3.51,3.92,3.88l1.27.19c.57.1,1.42.16,1.29.82s-1.19.87-1.83.87a6.48,6.48,0,0,1-3.8-1.34l-.29-.21Z"/><path class="cls-2" d="M79.65,5.4a15.08,15.08,0,0,0-4.25-.6c-5.24,0-10,3.41-10.83,7.69s2.55,7.41,7.65,7.41A18.6,18.6,0,0,0,77,19.32l1.25-5.47a6.86,6.86,0,0,1-4,1.36c-1.94,0-3.39-1.24-3.08-2.85S73.29,9.5,75.23,9.5A5.27,5.27,0,0,1,78.77,11Z"/><path class="cls-2" d="M90.06,4.8c-5.43,0-10.47,3-11.36,7.59s3,7.51,8.44,7.51,10.43-2.81,11.34-7.51S95.49,4.8,90.06,4.8Zm-.93,4.81c2.06,0,3.09,1.3,2.79,2.85A3.74,3.74,0,0,1,88,15.28c-2,0-3.12-1.14-2.8-2.81A3.8,3.8,0,0,1,89.13,9.62Z"/><path class="cls-2" d="M20.34,2.12A19.41,19.41,0,0,0,15,1.39c-6.54,0-12.48,4.13-13.51,9.29s3.18,9,9.54,9a24,24,0,0,0,5.91-.7l1.56-6.62a8.74,8.74,0,0,1-5,1.64c-2.43,0-4.23-1.5-3.84-3.45s2.67-3.45,5.1-3.45a6.68,6.68,0,0,1,4.41,1.78Z"/><path class="cls-2" d="M95.61,18.82a1.29,1.29,0,0,1,1.29-.92c.62,0,1,.41.94.92a1.29,1.29,0,0,1-1.29.93C95.92,19.75,95.51,19.34,95.61,18.82Zm1.93,0c.08-.41-.22-.68-.69-.68a.9.9,0,0,0-1,.68c-.08.41.21.69.69.69A.92.92,0,0,0,97.54,18.82Zm-.4.48h-.29l-.18-.41h-.19l-.08.41h-.24l.18-1h.56c.25,0,.38.07.34.29a.32.32,0,0,1-.31.26Zm-.36-.59c.12,0,.23,0,.25-.11s-.09-.08-.21-.08h-.26l0,.19Z"/></g></g></svg>