<svg xmlns="http://www.w3.org/2000/svg" viewBox="0 0 157.74 30"><defs><style>.cls-1{fill:#00ade6;}</style></defs><title>sunrun</title><g id="Layer_2" data-name="Layer 2"><g id="Art"><path class="cls-1" d="M10.71,30c-4,0-8-1.09-10.57-3.92A.45.45,0,0,1,0,25.6l2.79-3.13c.15-.19.45-.26.56-.11a9.94,9.94,0,0,0,7.68,2.9c2.75,0,4.92-.94,4.92-2.94s-1.91-2.7-5.41-3.72c-6.1-1.81-9.34-3.91-9.34-8.77s4.18-7.22,9.59-7.22c3.57,0,7.34.87,9.36,3.53.15.23.23.42.08.56L17.6,9.46c-.12.11-.41.26-.6.07a8.81,8.81,0,0,0-6.25-2.26c-3,0-4.1,1.17-4.1,2.53,0,1.88,1.39,2.67,6.06,4,5.3,1.54,8.5,3.27,8.5,8.39,0,5.3-4.85,7.79-10.5,7.79"/><path class="cls-1" d="M37.76,29.85C31.06,29.85,27,26.5,27,20.18V3.6a.52.52,0,0,1,.45-.49h4.63c.27,0,.42.3.42.49V19.43c0,3.5,1.43,5.45,5.34,5.45,4.17,0,5.38-2.18,5.38-5.6V3.48a.45.45,0,0,1,.45-.38h4.7a.41.41,0,0,1,.37.38V20.07c0,6.36-4.32,9.78-11,9.78"/><path class="cls-1" d="M66.09,2.77c6.7,0,10.76,3.34,10.76,9.66V29a.52.52,0,0,1-.45.49H71.77c-.27,0-.42-.3-.42-.49V13.19c0-3.5-1.43-5.46-5.34-5.46-4.18,0-5.38,2.18-5.38,5.61v15.8a.45.45,0,0,1-.45.38h-4.7a.4.4,0,0,1-.38-.38V12.54c0-6.35,4.32-9.77,11-9.77"/><path class="cls-1" d="M114.19,29.85c-6.69,0-10.76-3.35-10.76-9.67V3.6a.52.52,0,0,1,.46-.49h4.63c.26,0,.42.3.42.49V19.43c0,3.5,1.42,5.45,5.34,5.45,4.18,0,5.38-2.18,5.38-5.6V3.48a.45.45,0,0,1,.45-.38h4.7a.4.4,0,0,1,.38.38V20.07c0,6.36-4.32,9.78-11,9.78"/><path class="cls-1" d="M142.52,2.77c6.7,0,10.77,3.34,10.77,9.66V29a.52.52,0,0,1-.46.49H148.2c-.27,0-.41-.3-.41-.49V13.19c0-3.5-1.43-5.46-5.35-5.46-4.17,0-5.37,2.18-5.37,5.61v15.8a.46.46,0,0,1-.46.38h-4.7a.41.41,0,0,1-.37-.38V12.54c0-6.35,4.33-9.77,11-9.77"/><path class="cls-1" d="M97.85,2.82h-.16c-1.32,0-1.81-.05-2.31-.05-6.66,0-11,3.42-11,9.77V29.13a.41.41,0,0,0,.37.38h4.71a.45.45,0,0,0,.44-.38V13.33c0-3.42,1.21-5.61,5.38-5.61h2.56a.83.83,0,0,0,.82-.82V3.65a.83.83,0,0,0-.82-.83"/><path class="cls-1" d="M157.74,1.27A1.31,1.31,0,1,1,156.43,0,1.28,1.28,0,0,1,157.74,1.27Zm-2.29,0a1,1,0,0,0,1,1,1,1,0,0,0,1-1,1,1,0,1,0-2,0Zm.79.67h-.29V.67a2.56,2.56,0,0,1,.49,0,.79.79,0,0,1,.44.09A.35.35,0,0,1,157,1a.33.33,0,0,1-.26.29v0a.38.38,0,0,1,.23.31,1,1,0,0,0,.09.32h-.32a1.11,1.11,0,0,1-.1-.31c0-.14-.1-.2-.26-.2h-.14Zm0-.72h.14c.16,0,.3-.05.3-.19s-.08-.2-.27-.2l-.16,0Z"/></g></g></svg>